<svg width="25" height="28" viewBox="0 0 25 28" fill="none" xmlns="http://www.w3.org/2000/svg">
<path d="M12.2139 3.75684C12.3618 4.13077 12.7262 4.39258 13.1484 4.39258C16.3597 4.39259 18.9775 6.99718 18.9775 10.2002V19.9824C18.9776 20.2657 19.0675 20.5405 19.2334 20.7676L19.3096 20.8613L20.2158 21.8926H4.21191L5.11914 20.8613C5.33295 20.6183 5.45106 20.3061 5.45117 19.9824V10.2002C5.45117 6.99718 8.06898 4.39258 11.2803 4.39258C11.7023 4.39253 12.0659 4.13058 12.2139 3.75684Z" stroke="white" stroke-width="2"/>
<path d="M11.286 23.3571H13.1431V25.2143V25.2143C13.656 25.7271 13.656 26.5586 13.1431 27.0714V27.0714C12.6303 27.5842 11.7988 27.5842 11.286 27.0714V27.0714C10.7732 26.5586 10.7732 25.7271 11.286 25.2143V25.2143V23.3571Z" fill="white"/>
<circle cx="18.2144" cy="6" r="4" fill="#EF4444"/>
</svg>
