<svg width="25" height="25" viewBox="0 0 25 25" fill="none" xmlns="http://www.w3.org/2000/svg">
<path d="M2 12.5H5V12.5C5 12.7761 5.22386 13 5.5 13V13H19.5V13C19.7761 13 20 12.7761 20 12.5V12.5H23V16.5H9.5L6.5 20V16.5H2V12.5Z" fill="white"/>
<path d="M2 2H23V5.5H20V5.5C20 5.22386 19.7761 5 19.5 5V5H5.5V5C5.22386 5 5 5.22386 5 5.5V5.5H2V2Z" fill="white"/>
<path d="M2 5.5H5V5.5C5 5.77614 5.22386 6 5.5 6V6H19.5V6C19.7761 6 20 5.77614 20 5.5V5.5H23V9H20V9C20 8.72386 19.7761 8.5 19.5 8.5V8.5H5.5V8.5C5.22386 8.5 5 8.72386 5 9V9H2V5.5Z" fill="white"/>
<path d="M2 9L5 9V9C5 9.27614 5.22386 9.5 5.5 9.5V9.5H19.5V9.5C19.7761 9.5 20 9.27614 20 9V9L23 9V12.5H20V12.5C20 12.2239 19.7761 12 19.5 12V12H5.5V12C5.22386 12 5 12.2239 5 12.5V12.5H2V9Z" fill="white"/>
<path d="M2 1H23C23.5523 1 24 1.44772 24 2V16.1035C24 16.6558 23.5523 17.1035 23 17.1035H9.88867L9.58887 17.4482L5.74121 21.8877V17.1035H2C1.44774 17.1035 1.00004 16.6558 1 16.1035V2C1 1.48232 1.39333 1.05621 1.89746 1.00488L2 1Z" stroke="white" stroke-width="2"/>
</svg>
